<region> lovel=1 hivel=5 amp_velcurve_5=1 sample=../samples/hihats/hh13/brs/e/ord/hh13_brsr_eord_001.wav
<region> lovel=6 hivel=10 amp_velcurve_10=1 sample=../samples/hihats/hh13/brs/e/ord/hh13_brsr_eord_002.wav
<region> lovel=11 hivel=15 amp_velcurve_15=1 sample=../samples/hihats/hh13/brs/e/ord/hh13_brsr_eord_003.wav
<region> lovel=16 hivel=20 amp_velcurve_20=1 sample=../samples/hihats/hh13/brs/e/ord/hh13_brsr_eord_004.wav
<region> lovel=21 hivel=25 amp_velcurve_25=1 sample=../samples/hihats/hh13/brs/e/ord/hh13_brsr_eord_005.wav
<region> lovel=26 hivel=30 amp_velcurve_30=1 sample=../samples/hihats/hh13/brs/e/ord/hh13_brsr_eord_006.wav
<region> lovel=31 hivel=35 amp_velcurve_35=1 sample=../samples/hihats/hh13/brs/e/ord/hh13_brsr_eord_007.wav
<region> lovel=36 hivel=40 amp_velcurve_40=1 sample=../samples/hihats/hh13/brs/e/ord/hh13_brsr_eord_008.wav
<region> lovel=41 hivel=45 amp_velcurve_45=1 sample=../samples/hihats/hh13/brs/e/ord/hh13_brsr_eord_009.wav
<region> lovel=46 hivel=50 amp_velcurve_50=1 sample=../samples/hihats/hh13/brs/e/ord/hh13_brsr_eord_010.wav
<region> lovel=51 hivel=55 amp_velcurve_55=1 sample=../samples/hihats/hh13/brs/e/ord/hh13_brsr_eord_011.wav
<region> lovel=56 hivel=61 amp_velcurve_61=1 sample=../samples/hihats/hh13/brs/e/ord/hh13_brsr_eord_012.wav
<region> lovel=62 hivel=67 amp_velcurve_67=1 sample=../samples/hihats/hh13/brs/e/ord/hh13_brsr_eord_013.wav
<region> lovel=68 hivel=73 amp_velcurve_73=1 sample=../samples/hihats/hh13/brs/e/ord/hh13_brsr_eord_014.wav
<region> lovel=74 hivel=79 amp_velcurve_79=1 sample=../samples/hihats/hh13/brs/e/ord/hh13_brsr_eord_015.wav
<region> lovel=80 hivel=85 amp_velcurve_85=1 sample=../samples/hihats/hh13/brs/e/ord/hh13_brsr_eord_016.wav
<region> lovel=86 hivel=91 amp_velcurve_91=1 sample=../samples/hihats/hh13/brs/e/ord/hh13_brsr_eord_017.wav
<region> lovel=92 hivel=97 amp_velcurve_97=1 sample=../samples/hihats/hh13/brs/e/ord/hh13_brsr_eord_018.wav
<region> lovel=98 hivel=103 amp_velcurve_103=1 sample=../samples/hihats/hh13/brs/e/ord/hh13_brsr_eord_019.wav
<region> lovel=104 hivel=109 amp_velcurve_109=1 sample=../samples/hihats/hh13/brs/e/ord/hh13_brsr_eord_020.wav
<region> lovel=110 hivel=115 amp_velcurve_115=1 sample=../samples/hihats/hh13/brs/e/ord/hh13_brsr_eord_021.wav
<region> lovel=116 hivel=121 amp_velcurve_121=1 sample=../samples/hihats/hh13/brs/e/ord/hh13_brsr_eord_022.wav
<region> lovel=122 hivel=127 amp_velcurve_127=1 sample=../samples/hihats/hh13/brs/e/ord/hh13_brsr_eord_023.wav
